<svg xmlns="http://www.w3.org/2000/svg" viewBox="15 20 170 160"><defs><linearGradient id="iconGradient" x1="20" y1="100" x2="175" y2="100" gradientUnits="userSpaceOnUse"><stop offset="0" stop-color="#0078a8"/><stop offset="1" stop-color="#10c5a3"/></linearGradient><style>.cls-1{fill:url(#iconGradient);}.cls-2{fill:url(#iconGradient);}</style></defs><path class="cls-2" d="M173,94.85,96.91,50.92A6,6,0,0,0,88,56.07v87.85a6,6,0,0,0,8.92,5.15L173,105.15A6,6,0,0,0,173,94.85Z"/><path class="cls-1" d="M72.17,123.26,49.48,104.41a4.9,4.9,0,0,1,0-7.56L72.15,78.28a4.9,4.9,0,0,0,1.79-3.79V52.41h0L20.87,97a4.9,4.9,0,0,0,0,7.5l53.06,44.72h0V127A4.9,4.9,0,0,0,72.17,123.26Z"/></svg>
