<svg id="Layer_1" data-name="Layer 1" xmlns="http://www.w3.org/2000/svg" viewBox="0 0 1000 200"><defs><style>.cls-1{fill:#1e3745;}.cls-2{fill:#97dbf7;}</style></defs><title>Brian Schwabauer Logo 2017_2</title><path class="cls-1" d="M207.38,127.85v7.56h-6.51V63.06h6.51V98.37h.19a20.35,20.35,0,0,1,16.94-8.9c14,0,23.16,10.34,23.16,23.54s-9.19,23.54-23.16,23.54a20.66,20.66,0,0,1-16.94-8.71Zm16.46-32.92c-10,0-17.23,7.85-17.23,18.09s7.18,18,17.23,18c10.82,0,16.94-8,16.94-18S234.66,94.93,223.84,94.93Z"/><path class="cls-1" d="M261.26,90.62h6.22c.19,2.39.38,5.74.38,7.66h.19a16,16,0,0,1,14.36-8.8,15.23,15.23,0,0,1,4.31.48l-.86,6.13a17.39,17.39,0,0,0-4.59-.57c-6.89,0-13.11,5-13.11,16.94v23h-6.51V100.48C261.65,98.09,261.55,93.68,261.26,90.62Z"/><path class="cls-1" d="M299.45,78A4.59,4.59,0,1,1,304,73.39,4.65,4.65,0,0,1,299.45,78Zm3.25,57.42H296.2V90.62h6.51Z"/><path class="cls-1" d="M348.26,106.51c0-7.75-4.21-11.58-12-11.58a19,19,0,0,0-13.3,5.26l-3.64-4.31c3.64-3.64,10-6.41,17.61-6.41,9.67,0,17.42,5.36,17.42,16.27v19.62a61.41,61.41,0,0,0,.77,10h-5.84a44.68,44.68,0,0,1-.67-7.27h-.19c-4.11,5.93-9.09,8.42-16.27,8.42-6.8,0-15.5-3.64-15.5-13.59,0-13.78,15.22-15,31.58-15ZM346.35,113c-10.62,0-23,1.15-23,9.67,0,6.41,5.46,8.52,10.53,8.52,9.19,0,14.36-6.89,14.36-14.83V113Z"/><path class="cls-1" d="M377,90.62c.19,2.39.38,5.74.38,7.66h.19c2.49-5.17,9-8.8,15.31-8.8,11.39,0,17,7.37,17,18.47v27.47h-6.51V110.62c0-9.38-2.77-15.7-12.15-15.7-6.89,0-13.59,5.55-13.59,17.51v23h-6.51V100.48c0-2.39-.1-6.8-.38-9.86Z"/><path class="cls-1" d="M454.43,101.82a14.88,14.88,0,0,0-10-4.31c-3,0-5.93,1.05-5.93,3.83s2.58,3.45,8.71,4.78c7.27,1.63,15.22,5.26,15.22,14.55,0,12.06-10.62,16.27-20.39,16.27-7.75,0-15.79-2.58-20.77-7.37l8.8-9.28a16.19,16.19,0,0,0,11.68,5.36c2.58,0,5.65-1.05,5.65-4.12s-3-3.92-9.47-5.46-13.88-4.88-13.88-13.88c0-11.39,10.72-16,19.81-16,7.08,0,14.45,2.3,19.14,6.7Z"/><path class="cls-1" d="M504.39,103.16a10.92,10.92,0,0,0-8.33-3.83c-6.6,0-11,5.65-11,12.25s4.31,12.15,11.2,12.15c3.16,0,6.6-1.24,8.52-3.54l8.71,10.62c-3.92,3.83-10.62,6.13-17.61,6.13-15,0-26.7-9.57-26.7-25.36,0-15.5,11.77-25.36,26.61-25.36,6.79,0,14,2.58,17.71,6.41Z"/><path class="cls-1" d="M551.1,135.41V109.57c0-5.36-1.34-10-7-10-5.46,0-8.52,4.5-8.52,10.14v25.75H519.9V63.06h15.7V93.78h.19c2.1-3.83,7.08-7.37,13.69-7.37,12.92,0,17.42,10,17.42,19.52v29.48Z"/><path class="cls-1" d="M639.43,135.41H623.64l-9.38-29.67h-.19l-9.19,29.67H589.09L572.63,87.75h16.94l8.23,30.15h.29l8.52-30.15H622.4l8.8,30.15h.19l8.33-30.15H656Z"/><path class="cls-1" d="M661.45,94.26c5.55-5.26,13.49-8,21.25-8,16,0,21.92,7.85,21.92,25.17v24H690.26v-5.07H690c-2.39,3.92-7.85,6.22-13.49,6.22-7.56,0-17.32-3.73-17.32-14.93,0-13.78,16.75-16.08,30.63-16.08v-.77c0-4.69-3.73-6.89-8.61-6.89a18,18,0,0,0-11.77,4.88Zm28.81,20.39h-2c-6.89,0-14.64.86-14.64,6.51,0,3.64,3.64,4.88,6.79,4.88,6.32,0,9.86-3.83,9.86-9.76Z"/><path class="cls-1" d="M746.72,136.75c-6.32,0-12.54-2.78-15.6-7.56h-.19v6.22H716.48V63.06h15.7V92.82h.19a18.81,18.81,0,0,1,14.55-6.41c13.88,0,22.49,11.68,22.49,25S761.08,136.75,746.72,136.75ZM743,99.23c-7.08,0-11.48,6.22-11.48,12.25,0,6.22,4.4,12.25,11.48,12.25,7.46,0,11.29-6.13,11.29-12.35S750.45,99.23,743,99.23Z"/><path class="cls-1" d="M778.69,94.26c5.55-5.26,13.49-8,21.25-8,16,0,21.92,7.85,21.92,25.17v24H807.5v-5.07h-.29c-2.39,3.92-7.85,6.22-13.49,6.22-7.56,0-17.32-3.73-17.32-14.93,0-13.78,16.75-16.08,30.63-16.08v-.77c0-4.69-3.73-6.89-8.61-6.89a18,18,0,0,0-11.77,4.88Zm28.81,20.39h-2c-6.89,0-14.64.86-14.64,6.51,0,3.64,3.64,4.88,6.79,4.88,6.32,0,9.86-3.83,9.86-9.76Z"/><path class="cls-1" d="M864.92,135.41v-6.6h-.19c-2.2,4.21-7.66,7.94-14.36,7.94-12.83,0-17.32-10-17.32-19.52V87.75h15.79v25.84c0,5.36,1.34,10.14,7.08,10.14,5.46,0,8.42-4.79,8.42-10.24V87.75H880v47.66Z"/><path class="cls-1" d="M939.48,115.89H904.93c.48,5.26,5.74,9,11.39,9a12.46,12.46,0,0,0,10.53-5l10.91,6.89c-4.5,6.51-12,10.14-21.63,10.14-14.36,0-26.22-9.09-26.22-25.17,0-15.6,11.29-25.55,25.75-25.55,14.07,0,23.93,9.67,23.93,25.94C939.57,113.4,939.57,114.74,939.48,115.89Zm-14.36-9.76c0-5-3.16-9.09-9.38-9.09-6,0-10.43,4.21-10.82,9.09Z"/><path class="cls-1" d="M980.25,100.57a15.32,15.32,0,0,0-4-.48A10.77,10.77,0,0,0,965,110.91v24.5h-15.7V87.75h15.12v6.89h.19a14.39,14.39,0,0,1,12.92-8.23,11.11,11.11,0,0,1,3.35.38Z"/><path class="cls-2" d="M173,94.85,96.91,50.92A6,6,0,0,0,88,56.07v87.85a6,6,0,0,0,8.92,5.15L173,105.15A6,6,0,0,0,173,94.85Z"/><path class="cls-1" d="M72.17,123.26,49.48,104.41a4.9,4.9,0,0,1,0-7.56L72.15,78.28a4.9,4.9,0,0,0,1.79-3.79V52.41h0L20.87,97a4.9,4.9,0,0,0,0,7.5l53.06,44.72h0V127A4.9,4.9,0,0,0,72.17,123.26Z"/></svg>